<svg width="10" height="10" viewBox="0 0 10 10" fill="none" xmlns="http://www.w3.org/2000/svg">
<path fill-rule="evenodd" clip-rule="evenodd" d="M8.45297 2.18424C8.61506 2.18424 8.75 2.31883 8.75 2.49007V2.64841C8.75 2.81549 8.61506 2.95424 8.45297 2.95424H1.54744C1.38494 2.95424 1.25 2.81549 1.25 2.64841V2.49007C1.25 2.31883 1.38494 2.18424 1.54744 2.18424H2.76232C3.0091 2.18424 3.22388 2.00883 3.27939 1.76133L3.34301 1.47717C3.44189 1.09009 3.76729 0.833008 4.1397 0.833008H5.8603C6.22866 0.833008 6.5577 1.09009 6.65293 1.45675L6.72101 1.76092C6.77612 2.00883 6.9909 2.18424 7.23809 2.18424H8.45297ZM7.83576 7.97218C7.9626 6.79011 8.18466 3.9818 8.18466 3.95347C8.19277 3.86764 8.16481 3.78639 8.10929 3.72097C8.04972 3.65972 7.97435 3.62347 7.89128 3.62347H2.11189C2.02841 3.62347 1.94898 3.65972 1.89387 3.72097C1.83795 3.78639 1.81039 3.86764 1.81445 3.95347C1.81519 3.95868 1.82316 4.0576 1.83648 4.22298C1.89566 4.95766 2.06049 7.0039 2.167 7.97218C2.24237 8.6855 2.71041 9.13383 3.38836 9.15008C3.91151 9.16217 4.45047 9.16633 5.00158 9.16633C5.52068 9.16633 6.04789 9.16217 6.58725 9.15008C7.2887 9.138 7.75634 8.69759 7.83576 7.97218Z" fill="#E71D36"/>
</svg>
