<svg width="367" height="89" viewBox="0 0 367 89" fill="none" xmlns="http://www.w3.org/2000/svg">
<path d="M44.5205 78.2847H20.5407C18.326 78.2941 16.1799 77.5164 14.4854 76.0904C12.7908 74.6644 11.6579 72.6828 11.2888 70.499L10.9514 68.5137L12.8978 68.9938C13.9262 69.2419 14.9802 69.3682 16.038 69.3701H49.0102C50.0723 69.3674 51.1305 69.2411 52.1634 68.9938L54.1228 68.5266L53.7724 70.499C53.396 72.6794 52.2611 74.6566 50.5681 76.0812C48.8752 77.5059 46.7331 78.2863 44.5205 78.2847ZM14.5069 71.9394C15.0704 73.055 15.9332 73.9918 16.9989 74.6449C18.0645 75.298 19.2909 75.6417 20.5407 75.6375H44.5205C45.4085 75.6434 46.2888 75.4733 47.1107 75.137C47.9325 74.8007 48.6796 74.3048 49.3087 73.6781C49.8357 73.1755 50.2744 72.5877 50.6063 71.9394C50.0976 71.9915 49.5865 72.0175 49.0751 72.0172H16.038C15.5267 72.0172 15.0156 71.9912 14.5069 71.9394Z" fill="#6131DA"/>
<path d="M49.0106 72.017H16.0384C11.7869 72.0101 7.71143 70.3182 4.70513 67.3119C1.69882 64.3056 0.00686288 60.2301 0 55.9786C0.0137027 51.7303 1.70827 47.6602 4.71347 44.6574C7.71866 41.6547 11.7902 39.9634 16.0384 39.9531H49.0106C52.1802 39.952 55.279 40.8908 57.915 42.6508C60.5511 44.4108 62.606 46.913 63.8199 49.8409C65.0339 52.7688 65.3523 55.9909 64.735 59.0998C64.1176 62.2087 62.5922 65.0647 60.3517 67.3067C58.8634 68.7983 57.0958 69.9821 55.1498 70.7903C53.2039 71.5985 51.1177 72.0153 49.0106 72.017ZM16.0384 42.6002C12.7564 42.5895 9.58502 43.7855 7.12747 45.9608C4.66991 48.1361 3.09772 51.1389 2.70997 54.3979C2.32222 57.6569 3.14597 60.9448 5.02452 63.636C6.90307 66.3272 9.70533 68.234 12.8982 68.9936C13.9266 69.2417 14.9806 69.368 16.0384 69.3699H49.0106C50.0727 69.3672 51.1309 69.2409 52.1638 68.9936C54.5503 68.4043 56.7307 67.175 58.4702 65.4381C60.3474 63.5696 61.6271 61.1854 62.1468 58.5882C62.6666 55.9911 62.4029 53.298 61.3893 50.851C60.3758 48.4039 58.658 46.3132 56.454 44.8442C54.25 43.3752 51.6593 42.5942 49.0106 42.6002H16.0384Z" fill="#6131DA"/>
<path d="M19.7495 66.0224C17.7497 66.0249 15.7941 65.4343 14.1301 64.3251C12.4661 63.216 11.1684 61.6382 10.4014 59.7913C9.63429 57.9445 9.43226 55.9116 9.82083 53.9499C10.2094 51.9883 11.1711 50.1859 12.5843 48.7709C13.9974 47.356 15.7985 46.3919 17.7597 46.0008C19.7209 45.6098 21.754 45.8092 23.6018 46.5739C25.4497 47.3386 27.0291 48.6342 28.1404 50.2968C29.2517 51.9594 29.8449 53.9142 29.8449 55.914C29.8381 58.5906 28.7727 61.1557 26.8813 63.0496C24.9899 64.9434 22.4261 66.0121 19.7495 66.0224ZM19.7495 48.4528C18.2755 48.4605 16.8368 48.9046 15.6149 49.7291C14.3931 50.5536 13.4428 51.7216 12.884 53.0856C12.3253 54.4496 12.1831 55.9486 12.4753 57.3934C12.7676 58.8381 13.4813 60.1639 14.5263 61.2035C15.5713 62.2431 16.9008 62.9499 18.3471 63.2346C19.7934 63.5194 21.2916 63.3694 22.6527 62.8035C24.0138 62.2377 25.1767 61.2813 25.9949 60.0552C26.813 58.8291 27.2497 57.3881 27.2497 55.914C27.248 54.9314 27.0525 53.9588 26.6745 53.0517C26.2965 52.1447 25.7434 51.3212 25.0468 50.6281C24.3502 49.9351 23.5237 49.3863 22.6147 49.013C21.7058 48.6397 20.7321 48.4494 19.7495 48.4528Z" fill="#6131DA"/>
<path d="M45.3125 66.0224C43.3127 66.0249 41.3571 65.4343 39.6931 64.3251C38.029 63.216 36.7314 61.6382 35.9643 59.7913C35.1973 57.9445 34.9952 55.9116 35.3838 53.9499C35.7724 51.9883 36.7341 50.1859 38.1472 48.7709C39.5604 47.356 41.3615 46.3919 43.3227 46.0008C45.2839 45.6098 47.317 45.8092 49.1648 46.5739C51.0126 47.3386 52.5921 48.6342 53.7034 50.2968C54.8147 51.9594 55.4079 53.9142 55.4079 55.914C55.4045 58.5916 54.3402 61.1588 52.448 63.0533C50.5559 64.9479 47.9901 66.0155 45.3125 66.0224ZM45.3125 48.4528C43.8363 48.4502 42.3924 48.8856 41.1637 49.7039C39.935 50.5222 38.9767 51.6866 38.41 53.0497C37.8433 54.4129 37.6936 55.9135 37.9801 57.3617C38.2665 58.8099 38.9761 60.1405 40.019 61.1853C41.062 62.2301 42.3914 62.942 43.8391 63.2309C45.2868 63.5199 46.7877 63.3729 48.1518 62.8085C49.5159 62.2442 50.682 61.2879 51.5024 60.0606C52.3228 58.8333 52.7608 57.3903 52.7608 55.914C52.7573 53.9385 51.9719 52.0446 50.5762 50.6465C49.1805 49.2483 47.288 48.4596 45.3125 48.4528Z" fill="#6131DA"/>
<path d="M19.7624 60.974C22.5215 60.974 24.7582 58.7373 24.7582 55.9782C24.7582 53.2191 22.5215 50.9824 19.7624 50.9824C17.0033 50.9824 14.7666 53.2191 14.7666 55.9782C14.7666 58.7373 17.0033 60.974 19.7624 60.974Z" fill="#6131DA"/>
<path d="M45.3254 60.974C48.0845 60.974 50.3212 58.7373 50.3212 55.9782C50.3212 53.2191 48.0845 50.9824 45.3254 50.9824C42.5663 50.9824 40.3296 53.2191 40.3296 55.9782C40.3296 58.7373 42.5663 60.974 45.3254 60.974Z" fill="#6131DA"/>
<path d="M54.1102 9.71904C53.7161 9.72156 53.3255 9.79179 52.9553 9.92665L48.4526 4.03552C48.3325 3.87692 48.1704 3.75516 47.9846 3.68406C47.7988 3.61295 47.5968 3.59535 47.4015 3.63326C47.2079 3.67175 47.0284 3.7621 46.8821 3.89465C46.7359 4.0272 46.6284 4.19698 46.5711 4.38587L39.6808 28.4305H23.4477L11.3151 6.18954C11.9025 5.58601 12.2629 4.79772 12.3351 3.95859C12.4072 3.11945 12.1866 2.28122 11.7108 1.58628C11.235 0.891339 10.5332 0.382549 9.72482 0.146339C8.91639 -0.0898706 8.05111 -0.0389339 7.27598 0.290497C6.50085 0.619927 5.86366 1.20754 5.47266 1.9535C5.08166 2.69947 4.96095 3.5578 5.13105 4.38267C5.30114 5.20755 5.75155 5.94811 6.40576 6.47854C7.05997 7.00898 7.87763 7.29659 8.71985 7.29251C8.96418 7.29295 9.20783 7.26684 9.44651 7.21465L21.0082 28.4305H17.4657C16.1408 28.4305 14.8701 28.9569 13.9332 29.8938C12.9963 30.8307 12.4699 32.1014 12.4699 33.4263C12.4699 34.7513 12.9963 36.022 13.9332 36.9589C14.8701 37.8958 16.1408 38.4221 17.4657 38.4221H47.5962C48.9211 38.4221 50.1918 37.8958 51.1287 36.9589C52.0656 36.022 52.5919 34.7513 52.5919 33.4263C52.5919 32.1014 52.0656 30.8307 51.1287 29.8938C50.1918 28.9569 48.9211 28.4305 47.5962 28.4305H41.8997L48.0114 7.02001L51.1776 11.1724C50.6905 11.7997 50.4257 12.5711 50.4249 13.3653C50.425 14.0848 50.6379 14.7882 51.0369 15.387C51.4358 15.9857 52.003 16.4531 52.667 16.7301C53.331 17.0072 54.0622 17.0817 54.7684 16.9441C55.4746 16.8065 56.1243 16.4631 56.6358 15.9571C57.1473 15.451 57.4976 14.805 57.6426 14.1002C57.7877 13.3955 57.721 12.6636 57.451 11.9967C57.181 11.3298 56.7197 10.7577 56.1252 10.3524C55.5307 9.94708 54.8296 9.72672 54.1102 9.71904Z" fill="#6131DA"/>
<path d="M83.0466 37.7603H73.5352C73.082 37.7654 72.6324 37.6806 72.2123 37.5108C71.7921 37.3409 71.4099 37.0894 71.0876 36.7708C70.7654 36.4522 70.5096 36.0728 70.335 35.6546C70.1604 35.2364 70.0705 34.7877 70.0706 34.3346C70.074 33.4283 70.4364 32.5603 71.0785 31.9206C71.7206 31.281 72.5899 30.9219 73.4962 30.9219H101.33C102.236 30.9219 103.106 31.281 103.748 31.9206C104.39 32.5603 104.752 33.4283 104.756 34.3346C104.756 34.7845 104.667 35.2299 104.495 35.6455C104.323 36.0612 104.07 36.4388 103.752 36.7569C103.434 37.075 103.056 37.3273 102.641 37.4995C102.225 37.6717 101.78 37.7603 101.33 37.7603H91.7925V74.0933C91.7925 74.9984 91.4329 75.8664 90.7929 76.5064C90.1529 77.1464 89.2849 77.506 88.3798 77.506H86.4853C86.0317 77.5094 85.5819 77.4224 85.1623 77.2501C84.7426 77.0777 84.3616 76.8233 84.0414 76.502C83.7213 76.1806 83.4684 75.7986 83.2976 75.3783C83.1267 74.9581 83.0414 74.508 83.0466 74.0543V37.7603Z" fill="#6131DA"/>
<path d="M111.101 43.418H112.139C112.589 43.418 113.033 43.5067 113.448 43.679C113.863 43.8513 114.24 44.1038 114.557 44.4221C114.874 44.7404 115.125 45.1181 115.296 45.5337C115.467 45.9492 115.554 46.3944 115.552 46.8437V49.8022C116.163 48.3893 117.052 47.114 118.167 46.0527C119.282 44.9915 120.599 44.1659 122.04 43.6256C122.556 43.4432 123.108 43.387 123.65 43.4617C124.192 43.5364 124.708 43.7398 125.155 44.0549C125.602 44.37 125.968 44.7876 126.22 45.2728C126.473 45.7579 126.606 46.2966 126.608 46.8437V47.0642C126.608 47.8973 126.303 48.7016 125.751 49.3255C125.198 49.9493 124.437 50.3496 123.61 50.451C118.524 51.1258 115.539 53.6561 115.539 59.7678L114.799 74.1194C114.769 74.7872 114.483 75.4177 113.999 75.8794C113.516 76.3411 112.873 76.5985 112.204 76.5978H109.505C109.156 76.5981 108.809 76.5277 108.488 76.3908C108.166 76.2539 107.875 76.0534 107.632 75.8013C107.39 75.5492 107.201 75.2508 107.077 74.9238C106.953 74.5969 106.896 74.2482 106.91 73.8988L107.702 46.8437C107.702 45.9396 108.059 45.0722 108.696 44.4305C109.333 43.7888 110.197 43.4248 111.101 43.418Z" fill="#6131DA"/>
<path d="M140.492 46.8427L139.687 74.0924C139.687 74.7807 139.414 75.4408 138.927 75.9275C138.441 76.4142 137.78 76.6876 137.092 76.6876H134.497C134.147 76.6879 133.801 76.6175 133.479 76.4806C133.157 76.3438 132.867 76.1433 132.624 75.8912C132.382 75.6391 132.193 75.3406 132.069 75.0137C131.945 74.6867 131.888 74.338 131.902 73.9886L132.693 46.9335C132.693 46.0272 133.052 45.1578 133.692 44.5157C134.332 43.8737 135.2 43.5112 136.106 43.5078H137.157C138.034 43.5308 138.869 43.8895 139.49 44.51C140.11 45.1305 140.469 45.9654 140.492 46.8427Z" fill="#6131DA"/>
<path d="M141.141 33.3225C141.167 34.254 140.914 35.1721 140.415 35.9594C139.916 36.7466 139.194 37.3671 138.341 37.7417C137.487 38.1162 136.542 38.2277 135.625 38.0618C134.708 37.896 133.861 37.4604 133.193 36.8108C132.525 36.1611 132.065 35.3269 131.874 34.4149C131.682 33.5028 131.767 32.5544 132.118 31.6909C132.468 30.8273 133.068 30.0879 133.841 29.5672C134.614 29.0465 135.525 28.7682 136.456 28.7679C137.066 28.7487 137.673 28.8524 138.241 29.0729C138.81 29.2934 139.328 29.626 139.765 30.0511C140.202 30.4761 140.549 30.9848 140.786 31.5468C141.022 32.1089 141.143 32.7128 141.141 33.3225Z" fill="#6131DA"/>
<path d="M152.378 43.4188H153.416C154.322 43.4222 155.19 43.7846 155.83 44.4267C156.469 45.0688 156.829 45.9381 156.829 46.8444V48.8947C158.009 47.0056 159.65 45.4469 161.597 44.3644C163.544 43.2819 165.734 42.711 167.962 42.7051C176.5 42.7051 183.066 49.0244 183.066 60.0281V60.5472C183.066 71.486 176.76 78.1298 167.962 78.1298C165.738 78.229 163.528 77.7241 161.568 76.6685C159.608 75.613 157.97 74.0463 156.829 72.1348L156.089 85.7727C156.059 86.4405 155.772 87.071 155.289 87.5327C154.805 87.9944 154.162 88.2518 153.494 88.2511H150.769C150.421 88.2512 150.077 88.1816 149.757 88.0464C149.437 87.9111 149.148 87.713 148.906 87.4637C148.664 87.2144 148.474 86.919 148.348 86.5951C148.223 86.2712 148.163 85.9253 148.174 85.578L148.991 46.8444C148.991 45.9426 149.347 45.0771 149.981 44.4358C150.615 43.7944 151.476 43.429 152.378 43.4188ZM174.995 60.6769V60.1579C174.995 52.6058 171.102 48.8947 165.912 48.8947C160.436 48.8947 156.53 52.6058 156.53 60.1579V60.6769C156.53 68.2939 160.241 71.8753 165.977 71.8753C171.712 71.8753 174.995 67.9695 174.995 60.6769Z" fill="#6131DA"/>
<path d="M241.057 66.9173H242.549C243.148 66.9065 243.735 67.0799 244.232 67.4142C244.728 67.7484 245.11 68.2273 245.326 68.7859C246.13 71.0697 247.999 72.3673 251.71 72.3673C255.94 72.3673 257.835 70.862 257.835 67.9943C257.835 65.1266 255.551 64.1015 250.529 63.297C241.524 61.8567 238.202 59.3133 238.202 52.9161C238.202 46.0648 244.586 42.665 250.983 42.665C256.498 42.665 261.118 44.3 263.233 48.7638C263.442 49.2167 263.534 49.7149 263.5 50.2125C263.466 50.7101 263.307 51.1912 263.038 51.6113C262.769 52.0314 262.399 52.3771 261.961 52.6165C261.523 52.8559 261.033 52.9812 260.534 52.981H259.236C258.663 52.974 258.104 52.8044 257.624 52.492C257.144 52.1795 256.763 51.7371 256.524 51.2163C255.616 49.3088 253.929 48.4134 251.022 48.4134C247.636 48.4134 245.611 50.0354 245.611 52.449C245.611 54.8625 247.246 55.9136 252.657 56.8219C260.677 58.1195 265.452 60.027 265.452 67.2028C265.452 74.119 260.547 78.1027 251.814 78.1027C244.781 78.1027 240.135 75.5075 238.293 70.7972C238.151 70.3567 238.115 69.8893 238.186 69.4322C238.257 68.9751 238.433 68.5408 238.702 68.164C238.97 67.7872 239.323 67.4783 239.732 67.2619C240.141 67.0455 240.594 66.9275 241.057 66.9173Z" fill="#6131DA"/>
<path d="M272.173 66.9173H273.678C274.276 66.9102 274.862 67.0851 275.358 67.4189C275.854 67.7526 276.237 68.2294 276.455 68.7859C277.247 71.0697 279.05 72.3673 282.827 72.3673C287.07 72.3673 288.964 70.862 288.964 67.9943C288.964 65.1266 286.68 64.1015 281.646 63.297C272.64 61.8567 269.318 59.3133 269.318 52.9161C269.318 46.0648 275.716 42.665 282.113 42.665C287.615 42.665 292.234 44.3 294.349 48.7638C294.558 49.2167 294.65 49.7149 294.616 50.2125C294.582 50.7101 294.423 51.1912 294.154 51.6113C293.885 52.0314 293.515 52.3771 293.077 52.6165C292.64 52.8559 292.149 52.9812 291.65 52.981H290.353C289.781 52.9763 289.223 52.8074 288.744 52.4946C288.266 52.1817 287.887 51.738 287.654 51.2163C286.732 49.3088 285.058 48.4134 282.152 48.4134C278.752 48.4134 276.728 50.0354 276.728 52.449C276.728 54.8625 278.363 55.9136 283.774 56.8219C291.806 58.1195 296.568 60.027 296.568 67.2028C296.568 74.119 291.676 78.1027 282.93 78.1027C275.897 78.1027 271.252 75.5075 269.422 70.7972C269.278 70.3577 269.239 69.8906 269.308 69.4333C269.377 68.976 269.553 68.5413 269.82 68.164C270.087 67.7868 270.44 67.4775 270.848 67.261C271.257 67.0444 271.711 66.9268 272.173 66.9173Z" fill="#6131DA"/>
<path d="M301.681 33.3099C301.642 32.3736 301.884 31.447 302.376 30.6494C302.868 29.8517 303.587 29.2195 304.442 28.8339C305.296 28.4484 306.246 28.3271 307.169 28.4858C308.093 28.6444 308.948 29.0758 309.625 29.7243C310.301 30.3728 310.768 31.2088 310.966 32.1249C311.163 33.041 311.082 33.9953 310.733 34.865C310.384 35.7348 309.783 36.4802 309.007 37.0055C308.231 37.5307 307.315 37.8118 306.378 37.8126C305.773 37.8299 305.17 37.7267 304.605 37.5089C304.04 37.2912 303.524 36.9633 303.087 36.5443C302.65 36.1253 302.301 35.6236 302.059 35.0683C301.818 34.5131 301.689 33.9154 301.681 33.3099ZM305.496 43.4183H307.455C308.242 43.4217 308.996 43.7359 309.553 44.2924C310.109 44.849 310.423 45.6028 310.427 46.3898V74.5868C310.423 75.3727 310.109 76.1252 309.552 76.6796C308.995 77.2341 308.241 77.5454 307.455 77.5454H305.496C304.71 77.5454 303.956 77.2341 303.399 76.6796C302.842 76.1252 302.528 75.3727 302.524 74.5868V46.3898C302.528 45.6028 302.842 44.849 303.398 44.2924C303.955 43.7359 304.709 43.4217 305.496 43.4183Z" fill="#6131DA"/>
<path d="M319.86 66.9173H321.366C321.964 66.9065 322.552 67.0799 323.048 67.4142C323.545 67.7484 323.927 68.2273 324.142 68.7859C324.947 71.0697 326.815 72.3673 330.514 72.3673C334.757 72.3673 336.651 70.862 336.651 67.9943C336.651 65.1266 334.368 64.1015 329.346 63.297C320.34 61.8567 317.019 59.3133 317.019 52.9161C317.019 46.0648 323.403 42.665 329.8 42.665C335.315 42.665 339.934 44.3 342.049 48.7638C342.258 49.2167 342.35 49.7149 342.316 50.2125C342.282 50.7101 342.123 51.1912 341.854 51.6113C341.586 52.0314 341.215 52.3771 340.778 52.6165C340.34 52.8559 339.849 52.9812 339.35 52.981H338.053C337.48 52.974 336.921 52.8044 336.441 52.492C335.961 52.1795 335.579 51.7371 335.341 51.2163C334.432 49.3088 332.746 48.4134 329.839 48.4134C326.452 48.4134 324.428 50.0354 324.428 52.449C324.428 54.8625 326.05 55.9136 331.474 56.8219C339.493 58.1195 344.255 60.027 344.255 67.2028C344.255 74.119 339.363 78.1027 330.617 78.1027C323.597 78.1027 318.939 75.5075 317.109 70.7972C316.968 70.3578 316.931 69.8915 317.001 69.4353C317.072 68.9791 317.247 68.5456 317.514 68.1691C317.781 67.7926 318.132 67.4834 318.539 67.2662C318.947 67.0489 319.399 66.9294 319.86 66.9173Z" fill="#6131DA"/>
<path d="M351.327 68.0201V49.3215H349.731C348.943 49.3215 348.187 49.0085 347.63 48.4512C347.073 47.8939 346.76 47.1381 346.76 46.35C346.763 45.563 347.077 44.8091 347.634 44.2526C348.19 43.6961 348.944 43.3819 349.731 43.3785H351.327V38.9407C351.317 38.1535 351.618 37.3941 352.164 36.8279C352.711 36.2616 353.46 35.9343 354.247 35.9172H356.206C356.605 35.912 357 35.9866 357.369 36.1367C357.738 36.2868 358.074 36.5093 358.356 36.7911C358.637 37.0729 358.86 37.4083 359.01 37.7775C359.16 38.1467 359.235 38.5422 359.23 38.9407V43.4693H363.758C364.546 43.4693 365.302 43.7824 365.859 44.3397C366.417 44.8969 366.73 45.6527 366.73 46.4408C366.709 47.2142 366.387 47.9488 365.831 48.4872C365.276 49.0257 364.532 49.3252 363.758 49.3215H359.23V67.3064C359.23 70.3038 360.657 71.6793 363.122 71.6793H363.849C364.251 71.6582 364.653 71.719 365.031 71.8581C365.409 71.9971 365.754 72.2115 366.047 72.4881C366.339 72.7648 366.572 73.098 366.732 73.4676C366.892 73.8371 366.975 74.2353 366.976 74.6378V75.0012C366.967 75.6944 366.713 76.3621 366.26 76.8866C365.806 77.4112 365.182 77.759 364.498 77.8689C363.553 78.0171 362.599 78.0908 361.643 78.0895C354.857 78.1414 351.327 74.4821 351.327 68.0201Z" fill="#6131DA"/>
<path d="M205.975 29H212.165C213.027 29.0003 213.868 29.2725 214.567 29.778C215.265 30.2836 215.787 30.9967 216.057 31.8158L229.773 73.3392C229.976 73.9551 230.03 74.6104 229.931 75.2514C229.832 75.8923 229.582 76.5005 229.202 77.0261C228.822 77.5517 228.323 77.9797 227.746 78.2749C227.168 78.5701 226.529 78.7241 225.88 78.7243H224.933C224.067 78.7223 223.224 78.4462 222.525 77.9357C221.826 77.4253 221.306 76.7065 221.04 75.8825L217.991 66.41H198.994L195.996 75.8696C195.733 76.696 195.214 77.4175 194.515 77.9305C193.815 78.4435 192.971 78.7214 192.104 78.7243C191.453 78.7248 190.813 78.5707 190.234 78.2748C189.655 77.9789 189.155 77.5496 188.775 77.0223C188.394 76.495 188.145 75.8849 188.047 75.2423C187.949 74.5997 188.005 73.9429 188.211 73.3263L202.095 31.8028C202.369 30.9893 202.89 30.2816 203.585 29.779C204.281 29.2764 205.117 29.004 205.975 29ZM201.148 59.6754H215.824L209.453 39.4717C209.387 39.2763 209.261 39.1065 209.093 38.9862C208.926 38.8659 208.725 38.8012 208.518 38.8012C208.312 38.8012 208.111 38.8659 207.943 38.9862C207.776 39.1065 207.65 39.2763 207.584 39.4717L201.148 59.6754Z" fill="#6131DA"/>
</svg>
