<svg width="135" height="40" viewBox="0 0 135 40" fill="none" xmlns="http://www.w3.org/2000/svg">
<path fill-rule="evenodd" clip-rule="evenodd" d="M14.8546 13.595L18.0118 0.801547C18.2737 -0.259629 19.8659 -0.270027 20.1432 0.787628L23.5004 13.591C29.1071 15.3123 33.1608 20.2964 33.1608 26.1767C33.1608 33.4826 26.9032 39.4053 19.184 39.4053C11.4649 39.4053 5.20728 33.4826 5.20728 26.1767C5.20728 20.301 9.25462 15.32 14.8546 13.595Z" fill="url(#paint0_linear_861_1499)"/>
<path d="M17.4426 17.0134L15.5476 11.1204H22.8199L21.1894 16.9421C20.6662 18.81 18.0364 18.86 17.4426 17.0134Z" fill="url(#paint1_linear_861_1499)"/>
<path d="M17.5394 21.2481C17.5394 25.8322 13.6131 29.5483 8.76972 29.5483C3.92634 29.5483 0 25.8322 0 21.2481C0 16.6639 3.92634 12.9478 8.76972 12.9478C13.6131 12.9478 17.5394 16.6639 17.5394 21.2481Z" fill="white"/>
<path fill-rule="evenodd" clip-rule="evenodd" d="M8.76972 27.992C12.705 27.992 15.8951 24.9727 15.8951 21.2481C15.8951 17.5234 12.705 14.5041 8.76972 14.5041C4.83447 14.5041 1.64432 17.5234 1.64432 21.2481C1.64432 24.9727 4.83447 27.992 8.76972 27.992ZM8.76972 29.5483C13.6131 29.5483 17.5394 25.8322 17.5394 21.2481C17.5394 16.6639 13.6131 12.9478 8.76972 12.9478C3.92634 12.9478 0 16.6639 0 21.2481C0 25.8322 3.92634 29.5483 8.76972 29.5483Z" fill="url(#paint2_linear_861_1499)"/>
<path d="M38.3674 21.2481C38.3674 25.8322 34.4411 29.5483 29.5977 29.5483C24.7543 29.5483 20.828 25.8322 20.828 21.2481C20.828 16.6639 24.7543 12.9478 29.5977 12.9478C34.4411 12.9478 38.3674 16.6639 38.3674 21.2481Z" fill="white"/>
<path fill-rule="evenodd" clip-rule="evenodd" d="M29.5977 27.992C33.533 27.992 36.7231 24.9727 36.7231 21.2481C36.7231 17.5234 33.533 14.5041 29.5977 14.5041C25.6625 14.5041 22.4723 17.5234 22.4723 21.2481C22.4723 24.9727 25.6625 27.992 29.5977 27.992ZM29.5977 29.5483C34.4411 29.5483 38.3674 25.8322 38.3674 21.2481C38.3674 16.6639 34.4411 12.9478 29.5977 12.9478C24.7543 12.9478 20.828 16.6639 20.828 21.2481C20.828 25.8322 24.7543 29.5483 29.5977 29.5483Z" fill="url(#paint3_linear_861_1499)"/>
<path d="M11.3733 21.2483C11.3733 22.6092 10.2077 23.7125 8.76977 23.7125C7.33189 23.7125 6.16626 22.6092 6.16626 21.2483C6.16626 19.8874 7.33189 18.7842 8.76977 18.7842C10.2077 18.7842 11.3733 19.8874 11.3733 21.2483Z" fill="#1CAAEC"/>
<path d="M32.2013 21.2483C32.2013 22.6092 31.0357 23.7125 29.5978 23.7125C28.1599 23.7125 26.9943 22.6092 26.9943 21.2483C26.9943 19.8874 28.1599 18.7842 29.5978 18.7842C31.0357 18.7842 32.2013 19.8874 32.2013 21.2483Z" fill="#1CAAEC"/>
<path d="M48.7594 31.0557C48.5481 31.0557 48.3685 30.9923 48.2207 30.8655C48.0939 30.7176 48.0305 30.5381 48.0305 30.3268V11.6931H41.946C41.7348 11.6931 41.5552 11.6297 41.4073 11.5029C41.2805 11.3551 41.2172 11.1755 41.2172 10.9642V9.63323C41.2172 9.40083 41.2805 9.22126 41.4073 9.0945C41.5552 8.94661 41.7348 8.87267 41.946 8.87267H57.2206C57.453 8.87267 57.6326 8.94661 57.7593 9.0945C57.9072 9.22126 57.9812 9.40083 57.9812 9.63323V10.9642C57.9812 11.1755 57.9072 11.3551 57.7593 11.5029C57.6326 11.6297 57.453 11.6931 57.2206 11.6931H51.1678V30.3268C51.1678 30.5381 51.0939 30.7176 50.946 30.8655C50.8192 30.9923 50.6397 31.0557 50.4073 31.0557H48.7594Z" fill="#1CD7B8"/>
<path d="M57.0636 31.0557C56.8524 31.0557 56.6728 30.9923 56.5249 30.8655C56.3982 30.7176 56.3348 30.5381 56.3348 30.3268V15.3374C56.3348 15.1262 56.3982 14.9466 56.5249 14.7987C56.6728 14.6508 56.8524 14.5769 57.0636 14.5769H58.5214C58.7327 14.5769 58.9122 14.6508 59.0601 14.7987C59.208 14.9466 59.2819 15.1262 59.2819 15.3374V16.7318C59.7045 16.0135 60.2855 15.4748 61.0249 15.1156C61.7643 14.7564 62.6622 14.5769 63.7185 14.5769H64.9545C65.1657 14.5769 65.3347 14.6508 65.4615 14.7987C65.6094 14.9255 65.6833 15.0945 65.6833 15.3057V16.605C65.6833 16.8163 65.6094 16.9853 65.4615 17.1121C65.3347 17.2388 65.1657 17.3022 64.9545 17.3022H63.0531C61.9122 17.3022 61.0143 17.6402 60.3594 18.3163C59.7045 18.9712 59.377 19.8691 59.377 21.0099V30.3268C59.377 30.5381 59.3031 30.7176 59.1552 30.8655C59.0073 30.9923 58.8277 31.0557 58.6165 31.0557H57.0636Z" fill="#1CD7B8"/>
<path d="M70.5024 31.3726C69.4461 31.3726 68.4848 31.1613 67.6186 30.7388C66.7525 30.3162 66.0553 29.7458 65.5271 29.0275C64.9989 28.3092 64.7349 27.4958 64.7349 26.5874C64.7349 25.1296 65.3264 23.9677 66.5095 23.1015C67.6926 22.2353 69.2348 21.6649 71.1362 21.3902L75.858 20.7247V19.8057C75.858 18.7916 75.5623 17.9994 74.9707 17.429C74.4003 16.8585 73.4602 16.5733 72.1503 16.5733C71.2207 16.5733 70.4602 16.7635 69.8686 17.1438C69.2771 17.524 68.8651 18.0099 68.6327 18.6015C68.506 18.9184 68.2841 19.0768 67.9672 19.0768H66.5412C66.3088 19.0768 66.1292 19.0135 66.0025 18.8867C65.8968 18.7388 65.844 18.5698 65.844 18.3797C65.844 18.0628 65.9602 17.6719 66.1926 17.2071C66.4461 16.7424 66.8264 16.2881 67.3334 15.8445C67.8405 15.4008 68.4848 15.0311 69.2665 14.7353C70.0693 14.4184 71.0412 14.26 72.182 14.26C73.4496 14.26 74.5165 14.429 75.3827 14.767C76.2489 15.0839 76.9249 15.517 77.4109 16.0663C77.9179 16.6156 78.2771 17.2388 78.4883 17.936C78.7207 18.6332 78.8369 19.3409 78.8369 20.0592V30.3268C78.8369 30.5381 78.763 30.7176 78.6151 30.8655C78.4883 30.9923 78.3193 31.0557 78.108 31.0557H76.6503C76.4179 31.0557 76.2383 30.9923 76.1116 30.8655C75.9848 30.7176 75.9214 30.5381 75.9214 30.3268V28.9641C75.6468 29.3444 75.2771 29.7247 74.8123 30.105C74.3475 30.4641 73.7665 30.7705 73.0693 31.024C72.3721 31.2564 71.5165 31.3726 70.5024 31.3726ZM71.1679 28.9958C72.0341 28.9958 72.8264 28.8162 73.5447 28.4571C74.263 28.0768 74.8228 27.4958 75.2242 26.7141C75.6468 25.9325 75.858 24.9501 75.858 23.767V22.8796L72.182 23.4184C70.682 23.6296 69.5517 23.9888 68.7912 24.4958C68.0306 24.9818 67.6503 25.605 67.6503 26.3655C67.6503 26.9571 67.8194 27.4536 68.1574 27.855C68.5165 28.2353 68.9602 28.5205 69.4884 28.7106C70.0376 28.9007 70.5975 28.9958 71.1679 28.9958Z" fill="#1CD7B8"/>
<path d="M86.6007 31.0557C86.2838 31.0557 86.0303 30.9817 85.8401 30.8338C85.6711 30.6859 85.5338 30.4958 85.4282 30.2634L79.5655 15.5593C79.5233 15.4536 79.5021 15.348 79.5021 15.2424C79.5021 15.0522 79.5655 14.8938 79.6923 14.767C79.819 14.6402 79.9775 14.5769 80.1676 14.5769H81.6888C81.9212 14.5769 82.1007 14.6402 82.2275 14.767C82.3542 14.8938 82.4388 15.01 82.481 15.1156L87.2979 27.6015L92.1148 15.1156C92.157 15.01 92.231 14.8938 92.3366 14.767C92.4634 14.6402 92.6429 14.5769 92.8753 14.5769H94.4281C94.5971 14.5769 94.745 14.6402 94.8718 14.767C95.0197 14.8938 95.0936 15.0522 95.0936 15.2424C95.0936 15.348 95.0725 15.4536 95.0302 15.5593L89.1359 30.2634C89.0514 30.4958 88.9141 30.6859 88.7239 30.8338C88.5549 30.9817 88.3014 31.0557 87.9634 31.0557H86.6007Z" fill="#1CD7B8"/>
<path d="M102.197 31.3726C100 31.3726 98.257 30.7071 96.9683 29.3761C95.6796 28.024 94.9718 26.186 94.8451 23.862C94.8239 23.5874 94.8134 23.2388 94.8134 22.8163C94.8134 22.3726 94.8239 22.0135 94.8451 21.7388C94.9296 20.2388 95.2782 18.929 95.8908 17.8092C96.5035 16.6684 97.338 15.7916 98.3943 15.179C99.4718 14.5663 100.729 14.26 102.165 14.26C103.771 14.26 105.113 14.598 106.19 15.274C107.289 15.9501 108.123 16.9114 108.694 18.1578C109.264 19.4043 109.549 20.8621 109.549 22.5311V23.0698C109.549 23.3022 109.475 23.4818 109.327 23.6085C109.201 23.7353 109.032 23.7987 108.82 23.7987H97.8556C97.8556 23.8198 97.8556 23.862 97.8556 23.9254C97.8556 23.9888 97.8556 24.0416 97.8556 24.0839C97.8979 24.9501 98.088 25.7634 98.426 26.524C98.7641 27.2634 99.25 27.8655 99.8838 28.3303C100.539 28.7951 101.299 29.0275 102.165 29.0275C102.926 29.0275 103.56 28.9113 104.067 28.6789C104.574 28.4465 104.986 28.193 105.303 27.9184C105.62 27.6226 105.831 27.3902 105.937 27.2212C106.127 26.9677 106.275 26.8198 106.38 26.7775C106.486 26.7141 106.655 26.6824 106.887 26.6824H108.44C108.63 26.6824 108.789 26.7458 108.915 26.8726C109.063 26.9782 109.127 27.1367 109.106 27.3479C109.084 27.6648 108.915 28.0557 108.599 28.5205C108.282 28.9641 107.827 29.4078 107.236 29.8514C106.665 30.2951 105.947 30.6648 105.081 30.9606C104.236 31.2352 103.275 31.3726 102.197 31.3726ZM97.8556 21.612H106.539V21.517C106.539 20.5663 106.359 19.7212 106 18.9818C105.662 18.2423 105.165 17.6614 104.511 17.2388C103.856 16.7952 103.074 16.5733 102.165 16.5733C101.257 16.5733 100.475 16.7952 99.8204 17.2388C99.1866 17.6614 98.7007 18.2423 98.3626 18.9818C98.0246 19.7212 97.8556 20.5663 97.8556 21.517V21.612Z" fill="#1CD7B8"/>
<path d="M111.881 31.0557C111.669 31.0557 111.49 30.9923 111.342 30.8655C111.215 30.7176 111.152 30.5381 111.152 30.3268V9.28464C111.152 9.07337 111.215 8.90436 111.342 8.7776C111.49 8.62971 111.669 8.55577 111.881 8.55577H113.37C113.602 8.55577 113.782 8.62971 113.909 8.7776C114.036 8.90436 114.099 9.07337 114.099 9.28464V30.3268C114.099 30.5381 114.036 30.7176 113.909 30.8655C113.782 30.9923 113.602 31.0557 113.37 31.0557H111.881Z" fill="#1CD7B8"/>
<path d="M117.337 31.0557C117.125 31.0557 116.946 30.9923 116.798 30.8655C116.671 30.7176 116.608 30.5381 116.608 30.3268V15.3057C116.608 15.0945 116.671 14.9255 116.798 14.7987C116.946 14.6508 117.125 14.5769 117.337 14.5769H118.858C119.069 14.5769 119.238 14.6508 119.365 14.7987C119.513 14.9255 119.587 15.0945 119.587 15.3057V30.3268C119.587 30.5381 119.513 30.7176 119.365 30.8655C119.238 30.9923 119.069 31.0557 118.858 31.0557H117.337ZM117.083 11.5029C116.872 11.5029 116.692 11.4396 116.544 11.3128C116.418 11.1649 116.354 10.9853 116.354 10.7741V9.06281C116.354 8.85154 116.418 8.67196 116.544 8.52408C116.692 8.37619 116.872 8.30225 117.083 8.30225H119.079C119.291 8.30225 119.47 8.37619 119.618 8.52408C119.766 8.67196 119.84 8.85154 119.84 9.06281V10.7741C119.84 10.9853 119.766 11.1649 119.618 11.3128C119.47 11.4396 119.291 11.5029 119.079 11.5029H117.083Z" fill="#1CD7B8"/>
<path d="M121.747 31.0557C121.536 31.0557 121.357 30.9923 121.209 30.8655C121.082 30.7176 121.019 30.5381 121.019 30.3268V29.2176C121.019 29.0275 121.061 28.8479 121.145 28.6789C121.251 28.5099 121.357 28.3515 121.462 28.2036L130.209 17.0804H122.033C121.821 17.0804 121.642 17.017 121.494 16.8902C121.367 16.7635 121.304 16.5839 121.304 16.3515V15.3057C121.304 15.0945 121.367 14.9255 121.494 14.7987C121.642 14.6508 121.821 14.5769 122.033 14.5769H133.314C133.526 14.5769 133.695 14.6508 133.821 14.7987C133.969 14.9255 134.043 15.0945 134.043 15.3057V16.4783C134.043 16.6684 133.99 16.8374 133.885 16.9853C133.8 17.1332 133.705 17.2916 133.599 17.4607L124.948 28.5522H133.948C134.18 28.5522 134.36 28.6155 134.487 28.7423C134.614 28.8691 134.677 29.0486 134.677 29.281V30.3268C134.677 30.5381 134.614 30.7176 134.487 30.8655C134.36 30.9923 134.18 31.0557 133.948 31.0557H121.747Z" fill="#1CD7B8"/>
<defs>
<linearGradient id="paint0_linear_861_1499" x1="19.184" y1="-2.82865e-07" x2="25.8981" y2="37.4653" gradientUnits="userSpaceOnUse">
<stop stop-color="#1CF298"/>
<stop offset="1" stop-color="#1CA5F2"/>
</linearGradient>
<linearGradient id="paint1_linear_861_1499" x1="19.5599" y1="11.1204" x2="19.5599" y2="23.2079" gradientUnits="userSpaceOnUse">
<stop stop-color="#1CDDB1"/>
<stop offset="1" stop-color="#61E0EE"/>
</linearGradient>
<linearGradient id="paint2_linear_861_1499" x1="8.76972" y1="12.9478" x2="10.7018" y2="29.0055" gradientUnits="userSpaceOnUse">
<stop stop-color="#1CF298"/>
<stop offset="1" stop-color="#1CA5F2"/>
</linearGradient>
<linearGradient id="paint3_linear_861_1499" x1="29.5977" y1="12.9478" x2="31.5298" y2="29.0055" gradientUnits="userSpaceOnUse">
<stop stop-color="#1CF298"/>
<stop offset="1" stop-color="#1CA5F2"/>
</linearGradient>
</defs>
</svg>
